<?xml version="1.0" encoding="UTF-8" standalone="no"?>
<!DOCTYPE svg PUBLIC "-//W3C//DTD SVG 1.1//EN"
 "http://www.w3.org/Graphics/SVG/1.1/DTD/svg11.dtd">
<!-- Generated by graphviz version 13.1.2 (20250808.2320)
 -->
<!-- Pages: 1 -->
<svg width="1043pt" height="817pt"
 viewBox="0.00 0.00 1043.00 817.00" xmlns="http://www.w3.org/2000/svg" xmlns:xlink="http://www.w3.org/1999/xlink">
<g id="graph0" class="graph" transform="scale(1 1) rotate(0) translate(4 813.38)">
<polygon fill="white" stroke="none" points="-4,4 -4,-813.38 1038.75,-813.38 1038.75,4 -4,4"/>
<!-- generate_summary_section -->
<g id="node1" class="node">
<title>generate_summary_section</title>
<ellipse fill="none" stroke="black" cx="744" cy="-691.89" rx="116.85" ry="28.99"/>
<text xml:space="preserve" text-anchor="middle" x="744" y="-695.09" font-family="Times,serif" font-size="14.00">generate_summary_section</text>
<text xml:space="preserve" text-anchor="middle" x="744" y="-678.59" font-family="Times,serif" font-size="14.00">140</text>
</g>
<!-- inspect_mapping -->
<g id="node2" class="node">
<title>inspect_mapping</title>
<ellipse fill="none" stroke="black" cx="356" cy="-581.41" rx="77.07" ry="28.99"/>
<text xml:space="preserve" text-anchor="middle" x="356" y="-584.61" font-family="Times,serif" font-size="14.00">inspect_mapping</text>
<text xml:space="preserve" text-anchor="middle" x="356" y="-568.11" font-family="Times,serif" font-size="14.00">488</text>
</g>
<!-- generate_summary_section&#45;&gt;inspect_mapping -->
<g id="edge2" class="edge">
<title>generate_summary_section&#45;&gt;inspect_mapping</title>
<path fill="none" stroke="black" d="M643.54,-676.73C599.7,-669.28 548.02,-658.76 502.5,-644.9 471.91,-635.58 439.06,-621.93 412.23,-609.76"/>
<polygon fill="black" stroke="black" points="413.81,-606.63 403.26,-605.63 410.89,-612.99 413.81,-606.63"/>
<text xml:space="preserve" text-anchor="middle" x="509.25" y="-631.6" font-family="Times,serif" font-size="14.00">95</text>
</g>
<!-- change_summary_level -->
<g id="node3" class="node">
<title>change_summary_level</title>
<ellipse fill="none" stroke="black" cx="491" cy="-470.92" rx="103.06" ry="28.99"/>
<text xml:space="preserve" text-anchor="middle" x="491" y="-474.12" font-family="Times,serif" font-size="14.00">change_summary_level</text>
<text xml:space="preserve" text-anchor="middle" x="491" y="-457.62" font-family="Times,serif" font-size="14.00">190</text>
</g>
<!-- generate_summary_section&#45;&gt;change_summary_level -->
<g id="edge12" class="edge">
<title>generate_summary_section&#45;&gt;change_summary_level</title>
<path fill="none" stroke="black" d="M726.97,-662.74C703.02,-625.2 656.08,-558.76 601,-517.91 590.84,-510.38 579.26,-503.82 567.52,-498.21"/>
<polygon fill="black" stroke="black" points="569.13,-495.09 558.58,-494.14 566.23,-501.46 569.13,-495.09"/>
<text xml:space="preserve" text-anchor="middle" x="696.58" y="-576.36" font-family="Times,serif" font-size="14.00">29</text>
</g>
<!-- apply_instruction_summary -->
<g id="node4" class="node">
<title>apply_instruction_summary</title>
<ellipse fill="none" stroke="black" cx="491" cy="-360.44" rx="119.5" ry="28.99"/>
<text xml:space="preserve" text-anchor="middle" x="491" y="-363.64" font-family="Times,serif" font-size="14.00">apply_instruction_summary</text>
<text xml:space="preserve" text-anchor="middle" x="491" y="-347.14" font-family="Times,serif" font-size="14.00">79</text>
</g>
<!-- generate_summary_section&#45;&gt;apply_instruction_summary -->
<g id="edge16" class="edge">
<title>generate_summary_section&#45;&gt;apply_instruction_summary</title>
<path fill="none" stroke="black" d="M772.44,-663.65C819.87,-614.95 904.68,-511.52 849,-441.93 819.63,-405.22 705.13,-384.09 613.42,-372.77"/>
<polygon fill="black" stroke="black" points="613.92,-369.3 603.57,-371.58 613.08,-376.25 613.92,-369.3"/>
<text xml:space="preserve" text-anchor="middle" x="867.9" y="-521.11" font-family="Times,serif" font-size="14.00">5</text>
</g>
<!-- commit_direct_instruction -->
<g id="node8" class="node">
<title>commit_direct_instruction</title>
<ellipse fill="none" stroke="black" cx="726" cy="-470.92" rx="113.67" ry="28.99"/>
<text xml:space="preserve" text-anchor="middle" x="726" y="-474.12" font-family="Times,serif" font-size="14.00">commit_direct_instruction</text>
<text xml:space="preserve" text-anchor="middle" x="726" y="-457.62" font-family="Times,serif" font-size="14.00">33</text>
</g>
<!-- generate_summary_section&#45;&gt;commit_direct_instruction -->
<g id="edge23" class="edge">
<title>generate_summary_section&#45;&gt;commit_direct_instruction</title>
<path fill="none" stroke="black" d="M748.26,-662.73C748.98,-656.85 749.62,-650.68 750,-644.9 753.66,-588.47 755.4,-572.85 742,-517.91 741.41,-515.51 740.75,-513.06 740.04,-510.6"/>
<polygon fill="black" stroke="black" points="743.46,-509.82 737.13,-501.33 736.79,-511.91 743.46,-509.82"/>
<text xml:space="preserve" text-anchor="middle" x="756" y="-576.36" font-family="Times,serif" font-size="14.00">3</text>
</g>
<!-- end -->
<g id="node10" class="node">
<title>end</title>
<ellipse fill="none" stroke="black" cx="944" cy="-28.99" rx="27" ry="18"/>
<text xml:space="preserve" text-anchor="middle" x="944" y="-23.94" font-family="Times,serif" font-size="14.00">end</text>
</g>
<!-- generate_summary_section&#45;&gt;end -->
<g id="edge30" class="edge">
<title>generate_summary_section&#45;&gt;end</title>
<path fill="none" stroke="black" d="M855.76,-683.15C894.83,-676.74 937.71,-665.27 973,-644.9 1005.04,-626.4 1028,-619.4 1028,-582.41 1028,-582.41 1028,-582.41 1028,-138.47 1028,-100.88 996.07,-68.4 971.58,-49.03"/>
<polygon fill="black" stroke="black" points="973.93,-46.42 963.85,-43.17 969.71,-52 973.93,-46.42"/>
<text xml:space="preserve" text-anchor="middle" x="1031.37" y="-355.39" font-family="Times,serif" font-size="14.00">2</text>
</g>
<!-- inspect_mapping&#45;&gt;generate_summary_section -->
<g id="edge9" class="edge">
<title>inspect_mapping&#45;&gt;generate_summary_section</title>
<path fill="none" stroke="black" d="M417.04,-599.47C481.54,-617.51 583.82,-646.1 656.81,-666.51"/>
<polygon fill="black" stroke="black" points="655.77,-669.86 666.35,-669.18 657.66,-663.11 655.77,-669.86"/>
<text xml:space="preserve" text-anchor="middle" x="579.98" y="-631.6" font-family="Times,serif" font-size="14.00">76</text>
</g>
<!-- inspect_mapping&#45;&gt;change_summary_level -->
<g id="edge3" class="edge">
<title>inspect_mapping&#45;&gt;change_summary_level</title>
<path fill="none" stroke="black" d="M396.66,-556.56C407.17,-549.83 418.27,-542.2 428,-534.41 438.23,-526.22 448.62,-516.58 457.93,-507.34"/>
<polygon fill="black" stroke="black" points="460.2,-510.03 464.74,-500.46 455.22,-505.11 460.2,-510.03"/>
<text xml:space="preserve" text-anchor="middle" x="456.5" y="-521.11" font-family="Times,serif" font-size="14.00">159</text>
</g>
<!-- inspect_mapping&#45;&gt;apply_instruction_summary -->
<g id="edge5" class="edge">
<title>inspect_mapping&#45;&gt;apply_instruction_summary</title>
<path fill="none" stroke="black" d="M340.35,-552.69C332.72,-537.6 324.37,-518.3 320.5,-499.91 315.18,-474.7 313.41,-466.71 320.5,-441.93 329,-412.22 354.42,-393.48 383.12,-381.65"/>
<polygon fill="black" stroke="black" points="384.29,-384.95 392.4,-378.14 381.81,-378.4 384.29,-384.95"/>
<text xml:space="preserve" text-anchor="middle" x="327.25" y="-465.87" font-family="Times,serif" font-size="14.00">61</text>
</g>
<!-- commit_modified_summary -->
<g id="node5" class="node">
<title>commit_modified_summary</title>
<ellipse fill="none" stroke="black" cx="333" cy="-249.96" rx="122.68" ry="28.99"/>
<text xml:space="preserve" text-anchor="middle" x="333" y="-253.16" font-family="Times,serif" font-size="14.00">commit_modified_summary</text>
<text xml:space="preserve" text-anchor="middle" x="333" y="-236.66" font-family="Times,serif" font-size="14.00">72</text>
</g>
<!-- inspect_mapping&#45;&gt;commit_modified_summary -->
<g id="edge14" class="edge">
<title>inspect_mapping&#45;&gt;commit_modified_summary</title>
<path fill="none" stroke="black" d="M325.51,-554.3C319.97,-548.27 314.76,-541.52 311,-534.41 305.76,-524.52 293.68,-460.07 290.5,-423.93 286.36,-376.96 302.23,-324.57 315.74,-289.88"/>
<polygon fill="black" stroke="black" points="318.96,-291.26 319.45,-280.68 312.47,-288.64 318.96,-291.26"/>
<text xml:space="preserve" text-anchor="middle" x="297.25" y="-410.63" font-family="Times,serif" font-size="14.00">13</text>
</g>
<!-- update_summary_section -->
<g id="node6" class="node">
<title>update_summary_section</title>
<ellipse fill="none" stroke="black" cx="252" cy="-139.47" rx="109.96" ry="28.99"/>
<text xml:space="preserve" text-anchor="middle" x="252" y="-142.67" font-family="Times,serif" font-size="14.00">update_summary_section</text>
<text xml:space="preserve" text-anchor="middle" x="252" y="-126.17" font-family="Times,serif" font-size="14.00">68</text>
</g>
<!-- inspect_mapping&#45;&gt;update_summary_section -->
<g id="edge11" class="edge">
<title>inspect_mapping&#45;&gt;update_summary_section</title>
<path fill="none" stroke="black" d="M288.73,-566.76C239.76,-552.44 182,-524.43 182,-471.92 182,-471.92 182,-471.92 182,-248.96 182,-221.74 197.74,-195.94 214.3,-176.34"/>
<polygon fill="black" stroke="black" points="216.87,-178.71 220.9,-168.91 211.64,-174.06 216.87,-178.71"/>
<text xml:space="preserve" text-anchor="middle" x="188.75" y="-355.39" font-family="Times,serif" font-size="14.00">11</text>
</g>
<!-- toggle_section -->
<g id="node7" class="node">
<title>toggle_section</title>
<ellipse fill="none" stroke="black" cx="67" cy="-28.99" rx="67" ry="28.99"/>
<text xml:space="preserve" text-anchor="middle" x="67" y="-32.19" font-family="Times,serif" font-size="14.00">toggle_section</text>
<text xml:space="preserve" text-anchor="middle" x="67" y="-15.69" font-family="Times,serif" font-size="14.00">20</text>
</g>
<!-- inspect_mapping&#45;&gt;toggle_section -->
<g id="edge21" class="edge">
<title>inspect_mapping&#45;&gt;toggle_section</title>
<path fill="none" stroke="black" d="M279.42,-577.38C229.37,-572.73 163.91,-561.43 112,-534.41 76.73,-516.06 48,-511.68 48,-471.92 48,-471.92 48,-471.92 48,-138.47 48,-115.19 52.3,-89.51 56.81,-68.98"/>
<polygon fill="black" stroke="black" points="60.2,-69.86 59.04,-59.33 53.38,-68.28 60.2,-69.86"/>
<text xml:space="preserve" text-anchor="middle" x="54.75" y="-300.15" font-family="Times,serif" font-size="14.00">15</text>
</g>
<!-- inspect_mapping&#45;&gt;commit_direct_instruction -->
<g id="edge19" class="edge">
<title>inspect_mapping&#45;&gt;commit_direct_instruction</title>
<path fill="none" stroke="black" d="M419.06,-564.41C451.94,-555.87 492.75,-544.98 529,-534.41 568.02,-523.04 611.08,-509.5 646.97,-497.93"/>
<polygon fill="black" stroke="black" points="647.98,-501.28 656.42,-494.88 645.83,-494.62 647.98,-501.28"/>
<text xml:space="preserve" text-anchor="middle" x="590.1" y="-521.11" font-family="Times,serif" font-size="14.00">29</text>
</g>
<!-- inspect_mapping&#45;&gt;end -->
<g id="edge15" class="edge">
<title>inspect_mapping&#45;&gt;end</title>
<path fill="none" stroke="black" d="M429.86,-572.44C486.72,-566.47 567.28,-558.33 638,-552.41 667.3,-549.96 876.54,-549.11 902,-534.41 930.98,-517.68 944,-505.39 944,-471.92 944,-471.92 944,-471.92 944,-138.47 944,-111.43 944,-80.59 944,-58.72"/>
<polygon fill="black" stroke="black" points="947.5,-58.79 944,-48.79 940.5,-58.79 947.5,-58.79"/>
<text xml:space="preserve" text-anchor="middle" x="950.75" y="-300.15" font-family="Times,serif" font-size="14.00">12</text>
</g>
<!-- change_summary_level&#45;&gt;inspect_mapping -->
<g id="edge4" class="edge">
<title>change_summary_level&#45;&gt;inspect_mapping</title>
<path fill="none" stroke="black" d="M436.54,-495.95C425.11,-502.24 413.56,-509.62 403.75,-517.91 395.08,-525.24 387.01,-534.4 380.06,-543.42"/>
<polygon fill="black" stroke="black" points="377.24,-541.35 374.14,-551.48 382.88,-545.5 377.24,-541.35"/>
<text xml:space="preserve" text-anchor="middle" x="413.87" y="-521.11" font-family="Times,serif" font-size="14.00">184</text>
</g>
<!-- change_summary_level&#45;&gt;apply_instruction_summary -->
<g id="edge13" class="edge">
<title>change_summary_level&#45;&gt;apply_instruction_summary</title>
<path fill="none" stroke="black" d="M491,-441.7C491,-429.37 491,-414.68 491,-401.27"/>
<polygon fill="black" stroke="black" points="494.5,-401.41 491,-391.41 487.5,-401.41 494.5,-401.41"/>
<text xml:space="preserve" text-anchor="middle" x="494.37" y="-410.63" font-family="Times,serif" font-size="14.00">4</text>
</g>
<!-- apply_instruction_summary&#45;&gt;generate_summary_section -->
<g id="edge28" class="edge">
<title>apply_instruction_summary&#45;&gt;generate_summary_section</title>
<path fill="none" stroke="black" d="M607.27,-367.52C709.62,-375.91 846.28,-395.7 872,-441.93 908.71,-507.91 891.52,-547.33 850,-610.4 837.45,-629.46 818.8,-645.8 800.63,-658.67"/>
<polygon fill="black" stroke="black" points="798.75,-655.72 792.46,-664.23 802.69,-661.5 798.75,-655.72"/>
<text xml:space="preserve" text-anchor="middle" x="894.95" y="-521.11" font-family="Times,serif" font-size="14.00">3</text>
</g>
<!-- apply_instruction_summary&#45;&gt;inspect_mapping -->
<g id="edge24" class="edge">
<title>apply_instruction_summary&#45;&gt;inspect_mapping</title>
<path fill="none" stroke="black" d="M430.24,-385.69C405.9,-398.62 380.2,-417.1 365.5,-441.93 347.83,-471.77 347.03,-511.82 349.71,-541.17"/>
<polygon fill="black" stroke="black" points="346.19,-541.18 350.76,-550.74 353.14,-540.41 346.19,-541.18"/>
<text xml:space="preserve" text-anchor="middle" x="372.25" y="-465.87" font-family="Times,serif" font-size="14.00">10</text>
</g>
<!-- apply_instruction_summary&#45;&gt;commit_modified_summary -->
<g id="edge6" class="edge">
<title>apply_instruction_summary&#45;&gt;commit_modified_summary</title>
<path fill="none" stroke="black" d="M451.94,-332.62C430.67,-318.02 404.16,-299.82 381.57,-284.31"/>
<polygon fill="black" stroke="black" points="383.63,-281.47 373.4,-278.7 379.66,-287.24 383.63,-281.47"/>
<text xml:space="preserve" text-anchor="middle" x="428.21" y="-300.15" font-family="Times,serif" font-size="14.00">58</text>
</g>
<!-- commit_modified_summary&#45;&gt;inspect_mapping -->
<g id="edge10" class="edge">
<title>commit_modified_summary&#45;&gt;inspect_mapping</title>
<path fill="none" stroke="black" d="M326.46,-279.08C316.65,-325.34 300.42,-420.29 312,-499.91 314.29,-515.71 314.92,-520.1 322,-534.41 323.53,-537.52 325.28,-540.63 327.16,-543.69"/>
<polygon fill="black" stroke="black" points="324.19,-545.55 332.63,-551.95 330.02,-541.68 324.19,-545.55"/>
<text xml:space="preserve" text-anchor="middle" x="315.61" y="-410.63" font-family="Times,serif" font-size="14.00">14</text>
</g>
<!-- commit_modified_summary&#45;&gt;update_summary_section -->
<g id="edge7" class="edge">
<title>commit_modified_summary&#45;&gt;update_summary_section</title>
<path fill="none" stroke="black" d="M312.14,-221.02C302.22,-207.73 290.22,-191.67 279.56,-177.39"/>
<polygon fill="black" stroke="black" points="282.48,-175.45 273.69,-169.53 276.87,-179.64 282.48,-175.45"/>
<text xml:space="preserve" text-anchor="middle" x="304.1" y="-189.67" font-family="Times,serif" font-size="14.00">56</text>
</g>
<!-- update_summary_section&#45;&gt;generate_summary_section -->
<g id="edge26" class="edge">
<title>update_summary_section&#45;&gt;generate_summary_section</title>
<path fill="none" stroke="black" d="M359.71,-145.55C562.77,-156.56 982,-186.81 982,-248.96 982,-582.41 982,-582.41 982,-582.41 982,-639.8 923.99,-666.96 865.25,-679.76"/>
<polygon fill="black" stroke="black" points="864.88,-676.26 855.77,-681.68 866.27,-683.12 864.88,-676.26"/>
<text xml:space="preserve" text-anchor="middle" x="988.75" y="-410.63" font-family="Times,serif" font-size="14.00">14</text>
</g>
<!-- update_summary_section&#45;&gt;inspect_mapping -->
<g id="edge8" class="edge">
<title>update_summary_section&#45;&gt;inspect_mapping</title>
<path fill="none" stroke="black" d="M196.92,-164.86C165.37,-182.95 132,-211.04 132,-248.96 132,-471.92 132,-471.92 132,-471.92 132,-535.72 206.5,-562.01 269.57,-572.84"/>
<polygon fill="black" stroke="black" points="268.87,-576.27 279.29,-574.39 269.97,-569.36 268.87,-576.27"/>
<text xml:space="preserve" text-anchor="middle" x="138.75" y="-355.39" font-family="Times,serif" font-size="14.00">44</text>
</g>
<!-- update_summary_section&#45;&gt;toggle_section -->
<g id="edge17" class="edge">
<title>update_summary_section&#45;&gt;toggle_section</title>
<path fill="none" stroke="black" d="M207.69,-112.49C179.96,-96.23 144.21,-75.27 115.69,-58.54"/>
<polygon fill="black" stroke="black" points="117.63,-55.62 107.23,-53.58 114.09,-61.66 117.63,-55.62"/>
<text xml:space="preserve" text-anchor="middle" x="173.95" y="-79.18" font-family="Times,serif" font-size="14.00">4</text>
</g>
<!-- update_summary_section&#45;&gt;end -->
<g id="edge25" class="edge">
<title>update_summary_section&#45;&gt;end</title>
<path fill="none" stroke="black" d="M345.32,-123.84C499.49,-99.68 800.82,-52.44 906.38,-35.89"/>
<polygon fill="black" stroke="black" points="906.86,-39.36 916.2,-34.35 905.78,-32.44 906.86,-39.36"/>
<text xml:space="preserve" text-anchor="middle" x="642.8" y="-79.18" font-family="Times,serif" font-size="14.00">5</text>
</g>
<!-- toggle_section&#45;&gt;generate_summary_section -->
<g id="edge22" class="edge">
<title>toggle_section&#45;&gt;generate_summary_section</title>
<path fill="none" stroke="black" d="M43.81,-56.52C28.03,-77.34 10,-107.84 10,-138.47 10,-582.41 10,-582.41 10,-582.41 10,-643.16 408.61,-673.28 618.33,-684.93"/>
<polygon fill="black" stroke="black" points="618.03,-688.42 628.2,-685.47 618.41,-681.43 618.03,-688.42"/>
<text xml:space="preserve" text-anchor="middle" x="13.37" y="-355.39" font-family="Times,serif" font-size="14.00">3</text>
</g>
<!-- toggle_section&#45;&gt;inspect_mapping -->
<g id="edge18" class="edge">
<title>toggle_section&#45;&gt;inspect_mapping</title>
<path fill="none" stroke="black" d="M74.62,-57.85C79.9,-79.63 86,-110.75 86,-138.47 86,-471.92 86,-471.92 86,-471.92 86,-510.73 113.07,-515.57 147,-534.41 184.32,-555.15 230.26,-566.53 269.55,-572.79"/>
<polygon fill="black" stroke="black" points="268.8,-576.22 279.21,-574.23 269.84,-569.29 268.8,-576.22"/>
<text xml:space="preserve" text-anchor="middle" x="92.75" y="-300.15" font-family="Times,serif" font-size="14.00">17</text>
</g>
<!-- commit_direct_instruction&#45;&gt;generate_summary_section -->
<g id="edge20" class="edge">
<title>commit_direct_instruction&#45;&gt;generate_summary_section</title>
<path fill="none" stroke="black" d="M726.91,-500.35C727.96,-528.37 730,-572.4 733.5,-610.4 734.74,-623.86 736.52,-638.53 738.27,-651.61"/>
<polygon fill="black" stroke="black" points="734.75,-651.7 739.58,-661.14 741.69,-650.75 734.75,-651.7"/>
<text xml:space="preserve" text-anchor="middle" x="740.25" y="-576.36" font-family="Times,serif" font-size="14.00">18</text>
</g>
<!-- commit_direct_instruction&#45;&gt;inspect_mapping -->
<g id="edge29" class="edge">
<title>commit_direct_instruction&#45;&gt;inspect_mapping</title>
<path fill="none" stroke="black" d="M643.04,-491.15C629.66,-494.15 615.96,-497.16 603,-499.91 562.45,-508.51 551.21,-506.04 511.5,-517.91 492.88,-523.48 489.02,-527.14 471,-534.41 453.99,-541.28 435.55,-548.68 418.52,-555.49"/>
<polygon fill="black" stroke="black" points="417.51,-552.12 409.53,-559.08 420.11,-558.62 417.51,-552.12"/>
<text xml:space="preserve" text-anchor="middle" x="518.25" y="-521.11" font-family="Times,serif" font-size="14.00">12</text>
</g>
<!-- commit_direct_instruction&#45;&gt;apply_instruction_summary -->
<g id="edge27" class="edge">
<title>commit_direct_instruction&#45;&gt;apply_instruction_summary</title>
<path fill="none" stroke="black" d="M672.08,-445.03C637.4,-429.02 592.15,-408.13 555.55,-391.24"/>
<polygon fill="black" stroke="black" points="557.4,-388.24 546.85,-387.22 554.46,-394.59 557.4,-388.24"/>
<text xml:space="preserve" text-anchor="middle" x="625.94" y="-410.63" font-family="Times,serif" font-size="14.00">3</text>
</g>
<!-- start -->
<g id="node9" class="node">
<title>start</title>
<ellipse fill="none" stroke="black" cx="744" cy="-791.38" rx="27" ry="18"/>
<text xml:space="preserve" text-anchor="middle" x="744" y="-786.33" font-family="Times,serif" font-size="14.00">start</text>
</g>
<!-- start&#45;&gt;generate_summary_section -->
<g id="edge1" class="edge">
<title>start&#45;&gt;generate_summary_section</title>
<path fill="none" stroke="black" d="M744,-772.95C744,-761.74 744,-746.7 744,-732.68"/>
<polygon fill="black" stroke="black" points="747.5,-732.76 744,-722.76 740.5,-732.76 747.5,-732.76"/>
<text xml:space="preserve" text-anchor="middle" x="750.75" y="-742.08" font-family="Times,serif" font-size="14.00">20</text>
</g>
</g>
</svg>
