<?xml version="1.0" encoding="UTF-8" standalone="no"?>
<!DOCTYPE svg PUBLIC "-//W3C//DTD SVG 1.1//EN"
 "http://www.w3.org/Graphics/SVG/1.1/DTD/svg11.dtd">
<!-- Generated by graphviz version 13.1.2 (20250808.2320)
 -->
<!-- Pages: 1 -->
<svg width="412pt" height="464pt"
 viewBox="0.00 0.00 412.00 464.00" xmlns="http://www.w3.org/2000/svg" xmlns:xlink="http://www.w3.org/1999/xlink">
<g id="graph0" class="graph" transform="scale(1 1) rotate(0) translate(4 459.95)">
<polygon fill="white" stroke="none" points="-4,4 -4,-459.95 407.89,-459.95 407.89,4 -4,4"/>
<!-- generate_summary_section -->
<g id="node1" class="node">
<title>generate_summary_section</title>
<ellipse fill="none" stroke="black" cx="263.67" cy="-338.46" rx="116.85" ry="28.99"/>
<text xml:space="preserve" text-anchor="middle" x="263.67" y="-341.66" font-family="Times,serif" font-size="14.00">generate_summary_section</text>
<text xml:space="preserve" text-anchor="middle" x="263.67" y="-325.16" font-family="Times,serif" font-size="14.00">144</text>
</g>
<!-- commit_direct_instruction -->
<g id="node2" class="node">
<title>commit_direct_instruction</title>
<ellipse fill="none" stroke="black" cx="113.67" cy="-227.97" rx="113.67" ry="28.99"/>
<text xml:space="preserve" text-anchor="middle" x="113.67" y="-231.17" font-family="Times,serif" font-size="14.00">commit_direct_instruction</text>
<text xml:space="preserve" text-anchor="middle" x="113.67" y="-214.67" font-family="Times,serif" font-size="14.00">95</text>
</g>
<!-- generate_summary_section&#45;&gt;commit_direct_instruction -->
<g id="edge2" class="edge">
<title>generate_summary_section&#45;&gt;commit_direct_instruction</title>
<path fill="none" stroke="black" d="M226.59,-310.64C206.49,-296.1 181.45,-278 160.07,-262.53"/>
<polygon fill="black" stroke="black" points="162.22,-259.77 152.07,-256.74 158.12,-265.44 162.22,-259.77"/>
<text xml:space="preserve" text-anchor="middle" x="204.4" y="-278.17" font-family="Times,serif" font-size="14.00">90</text>
</g>
<!-- commit_modified_summary -->
<g id="node3" class="node">
<title>commit_modified_summary</title>
<ellipse fill="none" stroke="black" cx="263.67" cy="-117.49" rx="122.68" ry="28.99"/>
<text xml:space="preserve" text-anchor="middle" x="263.67" y="-120.69" font-family="Times,serif" font-size="14.00">commit_modified_summary</text>
<text xml:space="preserve" text-anchor="middle" x="263.67" y="-104.19" font-family="Times,serif" font-size="14.00">16</text>
</g>
<!-- generate_summary_section&#45;&gt;commit_modified_summary -->
<g id="edge4" class="edge">
<title>generate_summary_section&#45;&gt;commit_modified_summary</title>
<path fill="none" stroke="black" d="M273.07,-309.45C274.8,-303.56 276.44,-297.35 277.67,-291.47 289.18,-236.22 289.18,-219.73 277.67,-164.48 277.19,-162.18 276.65,-159.84 276.06,-157.48"/>
<polygon fill="black" stroke="black" points="279.47,-156.69 273.47,-147.96 272.72,-158.53 279.47,-156.69"/>
<text xml:space="preserve" text-anchor="middle" x="293.05" y="-222.92" font-family="Times,serif" font-size="14.00">11</text>
</g>
<!-- end -->
<g id="node5" class="node">
<title>end</title>
<ellipse fill="none" stroke="black" cx="263.67" cy="-18" rx="27" ry="18"/>
<text xml:space="preserve" text-anchor="middle" x="263.67" y="-12.95" font-family="Times,serif" font-size="14.00">end</text>
</g>
<!-- generate_summary_section&#45;&gt;end -->
<g id="edge6" class="edge">
<title>generate_summary_section&#45;&gt;end</title>
<path fill="none" stroke="black" d="M290.87,-310.04C323.14,-275.38 375.14,-212.28 395.67,-146.48 403.34,-121.88 408.98,-110.56 395.67,-88.5 375.16,-54.53 331.93,-36.33 300.52,-27.19"/>
<polygon fill="black" stroke="black" points="301.57,-23.85 291,-24.61 299.74,-30.61 301.57,-23.85"/>
<text xml:space="preserve" text-anchor="middle" x="392.61" y="-167.68" font-family="Times,serif" font-size="14.00">2</text>
</g>
<!-- commit_direct_instruction&#45;&gt;generate_summary_section -->
<g id="edge3" class="edge">
<title>commit_direct_instruction&#45;&gt;generate_summary_section</title>
<path fill="none" stroke="black" d="M130.98,-257C139.3,-268.78 150.09,-281.94 162.17,-291.47 170.4,-297.96 179.69,-303.76 189.22,-308.88"/>
<polygon fill="black" stroke="black" points="187.37,-311.86 197.87,-313.28 190.54,-305.62 187.37,-311.86"/>
<text xml:space="preserve" text-anchor="middle" x="168.92" y="-278.17" font-family="Times,serif" font-size="14.00">73</text>
</g>
<!-- commit_direct_instruction&#45;&gt;commit_modified_summary -->
<g id="edge8" class="edge">
<title>commit_direct_instruction&#45;&gt;commit_modified_summary</title>
<path fill="none" stroke="black" d="M150.75,-200.16C170.77,-185.67 195.7,-167.65 217.03,-152.22"/>
<polygon fill="black" stroke="black" points="218.96,-155.15 225.01,-146.45 214.85,-149.47 218.96,-155.15"/>
<text xml:space="preserve" text-anchor="middle" x="201.02" y="-167.68" font-family="Times,serif" font-size="14.00">3</text>
</g>
<!-- commit_direct_instruction&#45;&gt;end -->
<g id="edge7" class="edge">
<title>commit_direct_instruction&#45;&gt;end</title>
<path fill="none" stroke="black" d="M106.58,-198.7C100.78,-168.77 96.65,-121.42 118.17,-88.5 142.31,-51.55 191.91,-33.75 226.45,-25.53"/>
<polygon fill="black" stroke="black" points="227.03,-28.99 236.05,-23.42 225.53,-22.15 227.03,-28.99"/>
<text xml:space="preserve" text-anchor="middle" x="124.92" y="-112.44" font-family="Times,serif" font-size="14.00">14</text>
</g>
<!-- commit_modified_summary&#45;&gt;generate_summary_section -->
<g id="edge9" class="edge">
<title>commit_modified_summary&#45;&gt;generate_summary_section</title>
<path fill="none" stroke="black" d="M263.67,-146.91C263.67,-185.44 263.67,-254.44 263.67,-297.99"/>
<polygon fill="black" stroke="black" points="260.17,-297.77 263.67,-307.77 267.17,-297.77 260.17,-297.77"/>
<text xml:space="preserve" text-anchor="middle" x="270.42" y="-222.92" font-family="Times,serif" font-size="14.00">10</text>
</g>
<!-- commit_modified_summary&#45;&gt;end -->
<g id="edge5" class="edge">
<title>commit_modified_summary&#45;&gt;end</title>
<path fill="none" stroke="black" d="M263.67,-88.03C263.67,-75.34 263.67,-60.41 263.67,-47.69"/>
<polygon fill="black" stroke="black" points="267.17,-47.83 263.67,-37.83 260.17,-47.83 267.17,-47.83"/>
<text xml:space="preserve" text-anchor="middle" x="267.04" y="-57.2" font-family="Times,serif" font-size="14.00">4</text>
</g>
<!-- start -->
<g id="node4" class="node">
<title>start</title>
<ellipse fill="none" stroke="black" cx="263.67" cy="-437.95" rx="27" ry="18"/>
<text xml:space="preserve" text-anchor="middle" x="263.67" y="-432.9" font-family="Times,serif" font-size="14.00">start</text>
</g>
<!-- start&#45;&gt;generate_summary_section -->
<g id="edge1" class="edge">
<title>start&#45;&gt;generate_summary_section</title>
<path fill="none" stroke="black" d="M263.67,-419.52C263.67,-408.31 263.67,-393.27 263.67,-379.25"/>
<polygon fill="black" stroke="black" points="267.17,-379.33 263.67,-369.33 260.17,-379.33 267.17,-379.33"/>
<text xml:space="preserve" text-anchor="middle" x="270.42" y="-388.65" font-family="Times,serif" font-size="14.00">20</text>
</g>
</g>
</svg>
